<svg width="183" height="46" viewBox="0 0 183 46" fill="none" xmlns="http://www.w3.org/2000/svg">
<path d="M0 23C0 10.2975 10.2975 0 23 0H160C172.703 0 183 10.2975 183 23V23C183 35.7025 172.703 46 160 46H23C10.2975 46 0 35.7025 0 23V23Z" fill="#4285F4" fill-opacity="0.3"/>
<path d="M3 23C3 11.9543 11.9543 3 23 3H160C171.046 3 180 11.9543 180 23V23C180 34.0457 171.046 43 160 43H23C11.9543 43 3 34.0457 3 23V23Z" fill="white"/>
<path fill-rule="evenodd" clip-rule="evenodd" d="M32.64 22.2045C32.64 21.5664 32.5827 20.9527 32.4764 20.3636H24V23.845H28.8436C28.635 24.97 28.0009 25.9232 27.0477 26.5614V28.8195H29.9564C31.6582 27.2527 32.64 24.9454 32.64 22.2045Z" fill="#4285F4"/>
<path fill-rule="evenodd" clip-rule="evenodd" d="M24 31C26.43 31 28.4673 30.1941 29.9564 28.8195L27.0477 26.5614C26.2418 27.1014 25.2109 27.4205 24 27.4205C21.6559 27.4205 19.6718 25.8373 18.9641 23.71H15.9573V26.0418C17.4382 28.9832 20.4818 31 24 31Z" fill="#34A853"/>
<path fill-rule="evenodd" clip-rule="evenodd" d="M18.9641 23.71C18.7841 23.17 18.6818 22.5932 18.6818 22C18.6818 21.4068 18.7841 20.83 18.9641 20.29V17.9582H15.9573C15.3477 19.1732 15 20.5477 15 22C15 23.4523 15.3477 24.8268 15.9573 26.0418L18.9641 23.71Z" fill="#FBBC05"/>
<path fill-rule="evenodd" clip-rule="evenodd" d="M24 16.5795C25.3214 16.5795 26.5077 17.0336 27.4405 17.9255L30.0218 15.3441C28.4632 13.8918 26.4259 13 24 13C20.4818 13 17.4382 15.0168 15.9573 17.9582L18.9641 20.29C19.6718 18.1627 21.6559 16.5795 24 16.5795Z" fill="#EA4335"/>
<path d="M49.248 23.4365C49.248 23.2314 49.2161 23.0492 49.1523 22.8896C49.0931 22.7301 48.986 22.5843 48.8311 22.4521C48.6761 22.32 48.4574 22.1924 48.1748 22.0693C47.8968 21.9417 47.5413 21.8118 47.1084 21.6797C46.6344 21.5339 46.1969 21.3721 45.7959 21.1943C45.3994 21.012 45.0531 20.8024 44.7568 20.5654C44.4606 20.3239 44.2305 20.0482 44.0664 19.7383C43.9023 19.4238 43.8203 19.0615 43.8203 18.6514C43.8203 18.2458 43.9046 17.8766 44.0732 17.5439C44.2464 17.2113 44.4902 16.9242 44.8047 16.6826C45.1237 16.4365 45.4997 16.2474 45.9326 16.1152C46.3656 15.9785 46.8441 15.9102 47.3682 15.9102C48.1064 15.9102 48.7422 16.0469 49.2754 16.3203C49.8132 16.5938 50.2256 16.9606 50.5127 17.4209C50.8044 17.8812 50.9502 18.3893 50.9502 18.9453H49.248C49.248 18.6172 49.1774 18.3278 49.0361 18.0771C48.8994 17.8219 48.6898 17.6214 48.4072 17.4756C48.1292 17.3298 47.776 17.2568 47.3477 17.2568C46.9421 17.2568 46.6048 17.3184 46.3359 17.4414C46.0671 17.5645 45.8665 17.7308 45.7344 17.9404C45.6022 18.1501 45.5361 18.387 45.5361 18.6514C45.5361 18.8382 45.5794 19.0091 45.666 19.1641C45.7526 19.3145 45.8848 19.4557 46.0625 19.5879C46.2402 19.7155 46.4635 19.8363 46.7324 19.9502C47.0013 20.0641 47.318 20.1735 47.6826 20.2783C48.234 20.4424 48.7148 20.6247 49.125 20.8252C49.5352 21.0212 49.877 21.2445 50.1504 21.4951C50.4238 21.7458 50.6289 22.0306 50.7656 22.3496C50.9023 22.6641 50.9707 23.0218 50.9707 23.4229C50.9707 23.8421 50.8864 24.2204 50.7178 24.5576C50.5492 24.8903 50.3076 25.1751 49.9932 25.4121C49.6833 25.6445 49.3096 25.8245 48.8721 25.9521C48.4391 26.0752 47.9561 26.1367 47.4229 26.1367C46.9443 26.1367 46.4727 26.0729 46.0078 25.9453C45.5475 25.8177 45.1283 25.624 44.75 25.3643C44.3717 25.0999 44.071 24.7718 43.8477 24.3799C43.6243 23.9834 43.5127 23.5208 43.5127 22.9922H45.2285C45.2285 23.3158 45.2832 23.5915 45.3926 23.8193C45.5065 24.0472 45.6637 24.234 45.8643 24.3799C46.0648 24.5212 46.2972 24.626 46.5615 24.6943C46.8304 24.7627 47.1175 24.7969 47.4229 24.7969C47.8239 24.7969 48.1589 24.7399 48.4277 24.626C48.7012 24.512 48.9062 24.3525 49.043 24.1475C49.1797 23.9424 49.248 23.7054 49.248 23.4365ZM54.0879 18.6035V26H52.4336V18.6035H54.0879ZM52.3242 16.6621C52.3242 16.4115 52.4062 16.2041 52.5703 16.04C52.7389 15.8714 52.9714 15.7871 53.2676 15.7871C53.5592 15.7871 53.7894 15.8714 53.958 16.04C54.1266 16.2041 54.2109 16.4115 54.2109 16.6621C54.2109 16.9082 54.1266 17.1133 53.958 17.2773C53.7894 17.4414 53.5592 17.5234 53.2676 17.5234C52.9714 17.5234 52.7389 17.4414 52.5703 17.2773C52.4062 17.1133 52.3242 16.9082 52.3242 16.6621ZM60.6299 18.6035H62.127V25.7949C62.127 26.4603 61.9857 27.0254 61.7031 27.4902C61.4206 27.9551 61.0264 28.3083 60.5205 28.5498C60.0146 28.7959 59.429 28.9189 58.7637 28.9189C58.4811 28.9189 58.1667 28.8779 57.8203 28.7959C57.4785 28.7139 57.1458 28.5817 56.8223 28.3994C56.5033 28.2217 56.2367 27.987 56.0225 27.6953L56.7949 26.7246C57.0592 27.0391 57.3509 27.2692 57.6699 27.415C57.9889 27.5609 58.3239 27.6338 58.6748 27.6338C59.0531 27.6338 59.3743 27.5632 59.6387 27.4219C59.9076 27.2852 60.1149 27.0824 60.2607 26.8135C60.4066 26.5446 60.4795 26.2165 60.4795 25.8291V20.2783L60.6299 18.6035ZM55.6055 22.3838V22.2402C55.6055 21.6797 55.6738 21.1693 55.8105 20.709C55.9473 20.2441 56.1432 19.8454 56.3984 19.5127C56.6536 19.1755 56.9635 18.918 57.3281 18.7402C57.6927 18.5579 58.1051 18.4668 58.5654 18.4668C59.0439 18.4668 59.4518 18.5534 59.7891 18.7266C60.1309 18.8997 60.4157 19.1481 60.6436 19.4717C60.8714 19.7907 61.0492 20.1735 61.1768 20.6201C61.3089 21.0622 61.4069 21.5544 61.4707 22.0967V22.5547C61.4115 23.0833 61.3112 23.5664 61.1699 24.0039C61.0286 24.4414 60.8418 24.8197 60.6094 25.1387C60.377 25.4577 60.0898 25.7038 59.748 25.877C59.4108 26.0501 59.012 26.1367 58.5518 26.1367C58.1006 26.1367 57.6927 26.0433 57.3281 25.8564C56.9681 25.6696 56.6582 25.4076 56.3984 25.0703C56.1432 24.7331 55.9473 24.3366 55.8105 23.8809C55.6738 23.4206 55.6055 22.9215 55.6055 22.3838ZM57.2529 22.2402V22.3838C57.2529 22.721 57.2848 23.0355 57.3486 23.3271C57.417 23.6188 57.5195 23.8763 57.6562 24.0996C57.7975 24.3184 57.9753 24.4915 58.1895 24.6191C58.4082 24.7422 58.6657 24.8037 58.9619 24.8037C59.3493 24.8037 59.666 24.7217 59.9121 24.5576C60.1628 24.3936 60.3542 24.1725 60.4863 23.8945C60.623 23.612 60.7188 23.2975 60.7734 22.9512V21.7139C60.7461 21.445 60.6891 21.1943 60.6025 20.9619C60.5205 20.7295 60.4089 20.5267 60.2676 20.3535C60.1263 20.1758 59.9486 20.0391 59.7344 19.9434C59.5202 19.8431 59.2673 19.793 58.9756 19.793C58.6794 19.793 58.4219 19.8568 58.2031 19.9844C57.9844 20.112 57.8044 20.2874 57.6631 20.5107C57.5264 20.734 57.4238 20.9938 57.3555 21.29C57.2871 21.5863 57.2529 21.903 57.2529 22.2402ZM65.4697 20.1826V26H63.8223V18.6035H65.374L65.4697 20.1826ZM65.1758 22.0283L64.6426 22.0215C64.6471 21.4974 64.7201 21.0166 64.8613 20.5791C65.0072 20.1416 65.2077 19.7656 65.4629 19.4512C65.7227 19.1367 66.0326 18.8952 66.3926 18.7266C66.7526 18.5534 67.1536 18.4668 67.5957 18.4668C67.9512 18.4668 68.2725 18.5169 68.5596 18.6172C68.8512 18.7129 69.0996 18.8701 69.3047 19.0889C69.5143 19.3076 69.6738 19.5924 69.7832 19.9434C69.8926 20.2897 69.9473 20.7158 69.9473 21.2217V26H68.293V21.2148C68.293 20.8594 68.2406 20.5791 68.1357 20.374C68.0355 20.1644 67.8874 20.0163 67.6914 19.9297C67.5 19.8385 67.2607 19.793 66.9736 19.793C66.6911 19.793 66.4382 19.8522 66.2148 19.9707C65.9915 20.0892 65.8024 20.251 65.6475 20.4561C65.4971 20.6611 65.3809 20.8981 65.2988 21.167C65.2168 21.4359 65.1758 21.723 65.1758 22.0283ZM79.5654 24.2568V18.6035H81.2197V26H79.6611L79.5654 24.2568ZM79.7979 22.7188L80.3516 22.7051C80.3516 23.2018 80.2969 23.6598 80.1875 24.0791C80.0781 24.4938 79.9095 24.8561 79.6816 25.166C79.4538 25.4714 79.1621 25.7106 78.8066 25.8838C78.4512 26.0524 78.0251 26.1367 77.5283 26.1367C77.1683 26.1367 76.8379 26.0843 76.5371 25.9795C76.2363 25.8747 75.9766 25.7129 75.7578 25.4941C75.5436 25.2754 75.3773 24.9906 75.2588 24.6396C75.1403 24.2887 75.0811 23.8695 75.0811 23.3818V18.6035H76.7285V23.3955C76.7285 23.6644 76.7604 23.89 76.8242 24.0723C76.888 24.25 76.9746 24.3936 77.084 24.5029C77.1934 24.6123 77.321 24.6898 77.4668 24.7354C77.6126 24.7809 77.7676 24.8037 77.9316 24.8037C78.401 24.8037 78.7702 24.7126 79.0391 24.5303C79.3125 24.3434 79.5062 24.0928 79.6201 23.7783C79.7386 23.4639 79.7979 23.1107 79.7979 22.7188ZM84.5625 20.0254V28.8438H82.915V18.6035H84.4326L84.5625 20.0254ZM89.3818 22.2334V22.377C89.3818 22.9147 89.318 23.4137 89.1904 23.874C89.0674 24.3298 88.8828 24.7285 88.6367 25.0703C88.3952 25.4076 88.0967 25.6696 87.7412 25.8564C87.3857 26.0433 86.9756 26.1367 86.5107 26.1367C86.0505 26.1367 85.6471 26.0524 85.3008 25.8838C84.959 25.7106 84.6696 25.4668 84.4326 25.1523C84.1956 24.8379 84.0042 24.4688 83.8584 24.0449C83.7171 23.6165 83.6169 23.1471 83.5576 22.6367V22.083C83.6169 21.5407 83.7171 21.0485 83.8584 20.6064C84.0042 20.1644 84.1956 19.7839 84.4326 19.4648C84.6696 19.1458 84.959 18.8997 85.3008 18.7266C85.6426 18.5534 86.0413 18.4668 86.4971 18.4668C86.9619 18.4668 87.3743 18.5579 87.7344 18.7402C88.0944 18.918 88.3975 19.1732 88.6436 19.5059C88.8896 19.834 89.0742 20.2305 89.1973 20.6953C89.3203 21.1556 89.3818 21.6683 89.3818 22.2334ZM87.7344 22.377V22.2334C87.7344 21.8916 87.7025 21.5749 87.6387 21.2832C87.5749 20.987 87.4746 20.7272 87.3379 20.5039C87.2012 20.2806 87.0257 20.1074 86.8115 19.9844C86.6019 19.8568 86.349 19.793 86.0527 19.793C85.7611 19.793 85.5104 19.8431 85.3008 19.9434C85.0911 20.0391 84.9157 20.1735 84.7744 20.3467C84.6331 20.5199 84.5238 20.7227 84.4463 20.9551C84.3688 21.1829 84.3141 21.4313 84.2822 21.7002V23.0264C84.3369 23.3545 84.4303 23.6553 84.5625 23.9287C84.6947 24.2021 84.8815 24.4209 85.123 24.585C85.3691 24.7445 85.6836 24.8242 86.0664 24.8242C86.3626 24.8242 86.6156 24.7604 86.8252 24.6328C87.0348 24.5052 87.2057 24.3298 87.3379 24.1064C87.4746 23.8786 87.5749 23.6165 87.6387 23.3203C87.7025 23.0241 87.7344 22.7096 87.7344 22.377ZM96.2793 24.3594L97.9883 18.6035H99.041L98.7539 20.3262L97.0312 26H96.0879L96.2793 24.3594ZM95.2744 18.6035L96.6074 24.3867L96.7168 26H95.6641L93.6611 18.6035H95.2744ZM100.641 24.3184L101.933 18.6035H103.539L101.543 26H100.49L100.641 24.3184ZM99.2188 18.6035L100.907 24.291L101.119 26H100.176L98.4326 20.3193L98.1455 18.6035H99.2188ZM106.424 18.6035V26H104.77V18.6035H106.424ZM104.66 16.6621C104.66 16.4115 104.742 16.2041 104.906 16.04C105.075 15.8714 105.307 15.7871 105.604 15.7871C105.895 15.7871 106.125 15.8714 106.294 16.04C106.463 16.2041 106.547 16.4115 106.547 16.6621C106.547 16.9082 106.463 17.1133 106.294 17.2773C106.125 17.4414 105.895 17.5234 105.604 17.5234C105.307 17.5234 105.075 17.4414 104.906 17.2773C104.742 17.1133 104.66 16.9082 104.66 16.6621ZM111.619 18.6035V19.8066H107.449V18.6035H111.619ZM108.652 16.792H110.3V23.9561C110.3 24.1839 110.332 24.3594 110.396 24.4824C110.464 24.6009 110.557 24.6807 110.676 24.7217C110.794 24.7627 110.933 24.7832 111.093 24.7832C111.207 24.7832 111.316 24.7764 111.421 24.7627C111.526 24.749 111.61 24.7354 111.674 24.7217L111.681 25.9795C111.544 26.0205 111.384 26.057 111.202 26.0889C111.024 26.1208 110.819 26.1367 110.587 26.1367C110.209 26.1367 109.874 26.0706 109.582 25.9385C109.29 25.8018 109.062 25.5807 108.898 25.2754C108.734 24.9701 108.652 24.5645 108.652 24.0586V16.792ZM114.518 15.5V26H112.877V15.5H114.518ZM114.23 22.0283L113.697 22.0215C113.702 21.5111 113.772 21.0394 113.909 20.6064C114.05 20.1735 114.246 19.7975 114.497 19.4785C114.752 19.1549 115.058 18.9066 115.413 18.7334C115.769 18.5557 116.163 18.4668 116.596 18.4668C116.96 18.4668 117.288 18.5169 117.58 18.6172C117.876 18.7174 118.132 18.8792 118.346 19.1025C118.56 19.3213 118.722 19.6084 118.831 19.9639C118.945 20.3148 119.002 20.7432 119.002 21.249V26H117.348V21.2354C117.348 20.8799 117.295 20.5973 117.19 20.3877C117.09 20.1781 116.942 20.0277 116.746 19.9365C116.55 19.8408 116.311 19.793 116.028 19.793C115.732 19.793 115.47 19.8522 115.242 19.9707C115.019 20.0892 114.832 20.251 114.682 20.4561C114.531 20.6611 114.417 20.8981 114.34 21.167C114.267 21.4359 114.23 21.723 114.23 22.0283ZM131.963 20.9141V24.7148C131.822 24.9017 131.601 25.1068 131.3 25.3301C131.004 25.5488 130.609 25.738 130.117 25.8975C129.625 26.057 129.012 26.1367 128.278 26.1367C127.654 26.1367 127.082 26.0319 126.562 25.8223C126.043 25.6081 125.594 25.2959 125.216 24.8857C124.842 24.4756 124.553 23.9766 124.348 23.3887C124.143 22.7962 124.04 22.1217 124.04 21.3652V20.6748C124.04 19.9229 124.133 19.2529 124.32 18.665C124.512 18.0726 124.785 17.5713 125.141 17.1611C125.496 16.751 125.924 16.4411 126.426 16.2314C126.932 16.0173 127.504 15.9102 128.142 15.9102C128.957 15.9102 129.632 16.0469 130.165 16.3203C130.703 16.5892 131.118 16.9629 131.409 17.4414C131.701 17.9199 131.885 18.4668 131.963 19.082H130.281C130.227 18.7357 130.119 18.4258 129.96 18.1523C129.805 17.8789 129.582 17.6647 129.29 17.5098C129.003 17.3503 128.629 17.2705 128.169 17.2705C127.772 17.2705 127.424 17.3457 127.123 17.4961C126.822 17.6465 126.572 17.8675 126.371 18.1592C126.175 18.4508 126.027 18.8063 125.927 19.2256C125.826 19.6449 125.776 20.1234 125.776 20.6611V21.3652C125.776 21.9121 125.833 22.3975 125.947 22.8213C126.066 23.2451 126.234 23.6029 126.453 23.8945C126.676 24.1862 126.948 24.4072 127.267 24.5576C127.586 24.7035 127.946 24.7764 128.347 24.7764C128.739 24.7764 129.06 24.7445 129.311 24.6807C129.561 24.6123 129.759 24.5326 129.905 24.4414C130.056 24.3457 130.172 24.2546 130.254 24.168V22.1924H128.183V20.9141H131.963ZM133.385 22.3838V22.2266C133.385 21.6934 133.462 21.1989 133.617 20.7432C133.772 20.2829 133.995 19.8841 134.287 19.5469C134.583 19.2051 134.943 18.9408 135.367 18.7539C135.796 18.5625 136.279 18.4668 136.816 18.4668C137.359 18.4668 137.842 18.5625 138.266 18.7539C138.694 18.9408 139.056 19.2051 139.353 19.5469C139.649 19.8841 139.874 20.2829 140.029 20.7432C140.184 21.1989 140.262 21.6934 140.262 22.2266V22.3838C140.262 22.917 140.184 23.4115 140.029 23.8672C139.874 24.3229 139.649 24.7217 139.353 25.0635C139.056 25.4007 138.696 25.665 138.272 25.8564C137.849 26.0433 137.368 26.1367 136.83 26.1367C136.288 26.1367 135.802 26.0433 135.374 25.8564C134.95 25.665 134.59 25.4007 134.294 25.0635C133.998 24.7217 133.772 24.3229 133.617 23.8672C133.462 23.4115 133.385 22.917 133.385 22.3838ZM135.032 22.2266V22.3838C135.032 22.7165 135.066 23.0309 135.135 23.3271C135.203 23.6234 135.31 23.8831 135.456 24.1064C135.602 24.3298 135.789 24.5052 136.017 24.6328C136.244 24.7604 136.516 24.8242 136.83 24.8242C137.135 24.8242 137.4 24.7604 137.623 24.6328C137.851 24.5052 138.038 24.3298 138.184 24.1064C138.329 23.8831 138.437 23.6234 138.505 23.3271C138.578 23.0309 138.614 22.7165 138.614 22.3838V22.2266C138.614 21.8984 138.578 21.5885 138.505 21.2969C138.437 21.0007 138.327 20.7386 138.177 20.5107C138.031 20.2829 137.844 20.1051 137.616 19.9775C137.393 19.8454 137.126 19.7793 136.816 19.7793C136.507 19.7793 136.238 19.8454 136.01 19.9775C135.786 20.1051 135.602 20.2829 135.456 20.5107C135.31 20.7386 135.203 21.0007 135.135 21.2969C135.066 21.5885 135.032 21.8984 135.032 22.2266ZM141.328 22.3838V22.2266C141.328 21.6934 141.406 21.1989 141.561 20.7432C141.715 20.2829 141.939 19.8841 142.23 19.5469C142.527 19.2051 142.887 18.9408 143.311 18.7539C143.739 18.5625 144.222 18.4668 144.76 18.4668C145.302 18.4668 145.785 18.5625 146.209 18.7539C146.637 18.9408 147 19.2051 147.296 19.5469C147.592 19.8841 147.818 20.2829 147.973 20.7432C148.128 21.1989 148.205 21.6934 148.205 22.2266V22.3838C148.205 22.917 148.128 23.4115 147.973 23.8672C147.818 24.3229 147.592 24.7217 147.296 25.0635C147 25.4007 146.64 25.665 146.216 25.8564C145.792 26.0433 145.311 26.1367 144.773 26.1367C144.231 26.1367 143.746 26.0433 143.317 25.8564C142.894 25.665 142.534 25.4007 142.237 25.0635C141.941 24.7217 141.715 24.3229 141.561 23.8672C141.406 23.4115 141.328 22.917 141.328 22.3838ZM142.976 22.2266V22.3838C142.976 22.7165 143.01 23.0309 143.078 23.3271C143.146 23.6234 143.254 23.8831 143.399 24.1064C143.545 24.3298 143.732 24.5052 143.96 24.6328C144.188 24.7604 144.459 24.8242 144.773 24.8242C145.079 24.8242 145.343 24.7604 145.566 24.6328C145.794 24.5052 145.981 24.3298 146.127 24.1064C146.273 23.8831 146.38 23.6234 146.448 23.3271C146.521 23.0309 146.558 22.7165 146.558 22.3838V22.2266C146.558 21.8984 146.521 21.5885 146.448 21.2969C146.38 21.0007 146.271 20.7386 146.12 20.5107C145.974 20.2829 145.787 20.1051 145.56 19.9775C145.336 19.8454 145.07 19.7793 144.76 19.7793C144.45 19.7793 144.181 19.8454 143.953 19.9775C143.73 20.1051 143.545 20.2829 143.399 20.5107C143.254 20.7386 143.146 21.0007 143.078 21.2969C143.01 21.5885 142.976 21.8984 142.976 22.2266ZM154.323 18.6035H155.82V25.7949C155.82 26.4603 155.679 27.0254 155.396 27.4902C155.114 27.9551 154.72 28.3083 154.214 28.5498C153.708 28.7959 153.122 28.9189 152.457 28.9189C152.174 28.9189 151.86 28.8779 151.514 28.7959C151.172 28.7139 150.839 28.5817 150.516 28.3994C150.197 28.2217 149.93 27.987 149.716 27.6953L150.488 26.7246C150.753 27.0391 151.044 27.2692 151.363 27.415C151.682 27.5609 152.017 27.6338 152.368 27.6338C152.746 27.6338 153.068 27.5632 153.332 27.4219C153.601 27.2852 153.808 27.0824 153.954 26.8135C154.1 26.5446 154.173 26.2165 154.173 25.8291V20.2783L154.323 18.6035ZM149.299 22.3838V22.2402C149.299 21.6797 149.367 21.1693 149.504 20.709C149.641 20.2441 149.837 19.8454 150.092 19.5127C150.347 19.1755 150.657 18.918 151.021 18.7402C151.386 18.5579 151.799 18.4668 152.259 18.4668C152.737 18.4668 153.145 18.5534 153.482 18.7266C153.824 18.8997 154.109 19.1481 154.337 19.4717C154.565 19.7907 154.743 20.1735 154.87 20.6201C155.002 21.0622 155.1 21.5544 155.164 22.0967V22.5547C155.105 23.0833 155.005 23.5664 154.863 24.0039C154.722 24.4414 154.535 24.8197 154.303 25.1387C154.07 25.4577 153.783 25.7038 153.441 25.877C153.104 26.0501 152.705 26.1367 152.245 26.1367C151.794 26.1367 151.386 26.0433 151.021 25.8564C150.661 25.6696 150.352 25.4076 150.092 25.0703C149.837 24.7331 149.641 24.3366 149.504 23.8809C149.367 23.4206 149.299 22.9215 149.299 22.3838ZM150.946 22.2402V22.3838C150.946 22.721 150.978 23.0355 151.042 23.3271C151.11 23.6188 151.213 23.8763 151.35 24.0996C151.491 24.3184 151.669 24.4915 151.883 24.6191C152.102 24.7422 152.359 24.8037 152.655 24.8037C153.043 24.8037 153.359 24.7217 153.605 24.5576C153.856 24.3936 154.048 24.1725 154.18 23.8945C154.316 23.612 154.412 23.2975 154.467 22.9512V21.7139C154.439 21.445 154.382 21.1943 154.296 20.9619C154.214 20.7295 154.102 20.5267 153.961 20.3535C153.82 20.1758 153.642 20.0391 153.428 19.9434C153.214 19.8431 152.961 19.793 152.669 19.793C152.373 19.793 152.115 19.8568 151.896 19.9844C151.678 20.112 151.498 20.2874 151.356 20.5107C151.22 20.734 151.117 20.9938 151.049 21.29C150.98 21.5863 150.946 21.903 150.946 22.2402ZM159.293 15.5V26H157.639V15.5H159.293ZM164.358 26.1367C163.812 26.1367 163.317 26.0479 162.875 25.8701C162.438 25.6878 162.064 25.4349 161.754 25.1113C161.449 24.7878 161.214 24.4072 161.05 23.9697C160.886 23.5322 160.804 23.0605 160.804 22.5547V22.2812C160.804 21.7025 160.888 21.1784 161.057 20.709C161.225 20.2396 161.46 19.8385 161.761 19.5059C162.062 19.1686 162.417 18.9111 162.827 18.7334C163.237 18.5557 163.682 18.4668 164.16 18.4668C164.689 18.4668 165.151 18.5557 165.548 18.7334C165.944 18.9111 166.272 19.1618 166.532 19.4854C166.797 19.8044 166.993 20.1849 167.12 20.627C167.252 21.069 167.318 21.5566 167.318 22.0898V22.7939H161.604V21.6113H165.691V21.4814C165.682 21.1852 165.623 20.9072 165.514 20.6475C165.409 20.3877 165.247 20.1781 165.028 20.0186C164.81 19.859 164.518 19.7793 164.153 19.7793C163.88 19.7793 163.636 19.8385 163.422 19.957C163.212 20.071 163.037 20.2373 162.896 20.4561C162.754 20.6748 162.645 20.9391 162.567 21.249C162.494 21.5544 162.458 21.8984 162.458 22.2812V22.5547C162.458 22.8783 162.501 23.179 162.588 23.457C162.679 23.7305 162.811 23.9697 162.984 24.1748C163.158 24.3799 163.367 24.5417 163.613 24.6602C163.859 24.7741 164.14 24.8311 164.454 24.8311C164.851 24.8311 165.204 24.7513 165.514 24.5918C165.824 24.4323 166.092 24.2067 166.32 23.915L167.188 24.7559C167.029 24.9883 166.822 25.2116 166.566 25.4258C166.311 25.6354 165.999 25.8063 165.63 25.9385C165.265 26.0706 164.841 26.1367 164.358 26.1367Z" fill="#1F1F1F"/>
</svg>
